<svg width="22" height="22" viewBox="0 0 22 22" fill="none" xmlns="http://www.w3.org/2000/svg">
<path d="M4.125 6.1875H17.875C18.6043 6.1875 19.3038 6.47723 19.8195 6.99296C20.3353 7.50868 20.625 8.20815 20.625 8.9375V13.0625C20.625 13.7918 20.3353 14.4913 19.8195 15.007C19.3038 15.5228 18.6043 15.8125 17.875 15.8125H4.125C3.39565 15.8125 2.69618 15.5228 2.18046 15.007C1.66473 14.4913 1.375 13.7918 1.375 13.0625V8.9375C1.375 8.20815 1.66473 7.50868 2.18046 6.99296C2.69618 6.47723 3.39565 6.1875 4.125 6.1875V6.1875ZM4.125 7.5625C3.76033 7.5625 3.41059 7.70737 3.15273 7.96523C2.89487 8.22309 2.75 8.57283 2.75 8.9375V13.0625C2.75 13.4272 2.89487 13.7769 3.15273 14.0348C3.41059 14.2926 3.76033 14.4375 4.125 14.4375H17.875C18.2397 14.4375 18.5894 14.2926 18.8473 14.0348C19.1051 13.7769 19.25 13.4272 19.25 13.0625V8.9375C19.25 8.57283 19.1051 8.22309 18.8473 7.96523C18.5894 7.70737 18.2397 7.5625 17.875 7.5625H4.125ZM1.375 2.75C1.375 2.56766 1.44743 2.3928 1.57636 2.26386C1.7053 2.13493 1.88016 2.0625 2.0625 2.0625H19.9375C20.1198 2.0625 20.2947 2.13493 20.4236 2.26386C20.5526 2.3928 20.625 2.56766 20.625 2.75C20.625 2.93234 20.5526 3.1072 20.4236 3.23614C20.2947 3.36507 20.1198 3.4375 19.9375 3.4375H2.0625C1.88016 3.4375 1.7053 3.36507 1.57636 3.23614C1.44743 3.1072 1.375 2.93234 1.375 2.75V2.75ZM1.375 19.25C1.375 19.0677 1.44743 18.8928 1.57636 18.7639C1.7053 18.6349 1.88016 18.5625 2.0625 18.5625H19.9375C20.1198 18.5625 20.2947 18.6349 20.4236 18.7639C20.5526 18.8928 20.625 19.0677 20.625 19.25C20.625 19.4323 20.5526 19.6072 20.4236 19.7361C20.2947 19.8651 20.1198 19.9375 19.9375 19.9375H2.0625C1.88016 19.9375 1.7053 19.8651 1.57636 19.7361C1.44743 19.6072 1.375 19.4323 1.375 19.25V19.25Z" fill="#B4B4B4"/>
</svg>
